<svg width="139" height="36" viewBox="0 0 139 36" fill="none" xmlns="http://www.w3.org/2000/svg">
<path fill-rule="evenodd" clip-rule="evenodd" d="M135.034 4.97258L132.304 1.44061L124.507 15.0172L127.265 19.1654L138.193 9.65719L135.034 4.97258ZM123.252 1.59035L125.948 5.65628L121.184 22.1083L115.522 27.6011L112.764 23.4529L123.252 1.59035ZM24.1028 5.96968L21.4071 1.90375L1.26758 23.6519L4.02555 27.8001L19.5591 22.7368L24.1028 5.96968ZM97.7653 7.87666L95.0695 3.81073L66.3949 27.1916L69.1529 31.3398L93.2216 24.6438L97.7653 7.87666ZM36.249 8.22082L38.9448 12.2867L33.7296 24.8815L25.3891 23.6304L21.6357 21.1283L36.249 8.22082ZM57.0629 14.5685L53.0903 8.22082L39.2121 20.0956L44.2064 29.0205L47.41 33.7215L63.8676 25.4415L61.0059 20.869L66.9452 12.2867L64.2495 8.22082L57.0629 14.5685Z" fill="black"/>
<path d="M132.304 1.44061L132.781 1.07202L132.23 0.35908L131.782 1.14039L132.304 1.44061ZM135.034 4.97258L135.534 4.63555L135.523 4.6194L135.511 4.60399L135.034 4.97258ZM124.507 15.0172L123.984 14.717L123.798 15.0404L124.005 15.3509L124.507 15.0172ZM127.265 19.1654L126.763 19.4991L127.143 20.0706L127.66 19.6202L127.265 19.1654ZM138.193 9.65719L138.589 10.112L138.991 9.76209L138.693 9.32017L138.193 9.65719ZM125.948 5.65628L126.527 5.82393L126.604 5.55581L126.45 5.32317L125.948 5.65628ZM123.252 1.59035L123.754 1.25725L123.167 0.372362L122.708 1.32964L123.252 1.59035ZM121.184 22.1083L121.604 22.5409L121.719 22.4296L121.763 22.2759L121.184 22.1083ZM115.522 27.6011L115.02 27.9348L115.422 28.5385L115.942 28.0337L115.522 27.6011ZM112.764 23.4529L112.221 23.1922L112.073 23.5012L112.262 23.7866L112.764 23.4529ZM21.4071 1.90375L21.9095 1.57065L21.4858 0.931593L20.9648 1.49418L21.4071 1.90375ZM24.1028 5.96968L24.6847 6.12734L24.756 5.86399L24.6052 5.63658L24.1028 5.96968ZM1.26758 23.6519L0.825293 23.2423L0.502883 23.5905L0.765603 23.9856L1.26758 23.6519ZM4.02555 27.8001L3.52357 28.1338L3.77706 28.5151L4.21236 28.3732L4.02555 27.8001ZM19.5591 22.7368L19.7459 23.3099L20.0557 23.2089L20.1409 22.8944L19.5591 22.7368ZM95.0695 3.81073L95.572 3.47763L95.2043 2.92309L94.6886 3.34355L95.0695 3.81073ZM97.7653 7.87666L98.3471 8.03432L98.4185 7.77097L98.2677 7.54356L97.7653 7.87666ZM66.3949 27.1916L66.014 26.7244L65.5902 27.07L65.893 27.5253L66.3949 27.1916ZM69.1529 31.3398L68.6509 31.6735L68.8931 32.0378L69.3145 31.9205L69.1529 31.3398ZM93.2216 24.6438L93.3832 25.2245L93.7137 25.1325L93.8034 24.8014L93.2216 24.6438ZM38.9448 12.2867L39.5017 12.5174L39.6244 12.221L39.4472 11.9536L38.9448 12.2867ZM36.249 8.22082L36.7514 7.88772L36.3688 7.31071L35.8499 7.76903L36.249 8.22082ZM33.7296 24.8815L33.6402 25.4776L34.1062 25.5475L34.2865 25.1121L33.7296 24.8815ZM25.3891 23.6304L25.0547 24.132L25.1666 24.2066L25.2997 24.2266L25.3891 23.6304ZM21.6357 21.1283L21.2367 20.6765L20.6494 21.1952L21.3013 21.6298L21.6357 21.1283ZM53.0903 8.22082L53.6013 7.90104L53.2301 7.30789L52.6984 7.76281L53.0903 8.22082ZM57.0629 14.5685L56.5519 14.8883L56.9291 15.4909L57.4619 15.0203L57.0629 14.5685ZM39.2121 20.0956L38.8202 19.6376L38.4448 19.9588L38.6861 20.39L39.2121 20.0956ZM44.2064 29.0205L43.6803 29.3149L43.6933 29.338L43.7082 29.36L44.2064 29.0205ZM47.41 33.7215L46.9119 34.0609L47.2092 34.4973L47.6809 34.26L47.41 33.7215ZM63.8676 25.4415L64.1385 25.98L64.7296 25.6826L64.3785 25.1217L63.8676 25.4415ZM61.0059 20.869L60.5103 20.526L60.2844 20.8523L60.495 21.1888L61.0059 20.869ZM66.9452 12.2867L67.4409 12.6298L67.6733 12.294L67.4476 11.9536L66.9452 12.2867ZM64.2495 8.22082L64.7519 7.88772L64.3693 7.31071L63.8504 7.76903L64.2495 8.22082ZM131.827 1.8092L134.557 5.34117L135.511 4.60399L132.781 1.07202L131.827 1.8092ZM125.029 15.3174L132.827 1.74084L131.782 1.14039L123.984 14.717L125.029 15.3174ZM127.767 18.8316L125.009 14.6834L124.005 15.3509L126.763 19.4991L127.767 18.8316ZM137.797 9.20243L126.869 18.7106L127.66 19.6202L138.589 10.112L137.797 9.20243ZM134.534 5.30961L137.693 9.99422L138.693 9.32017L135.534 4.63555L134.534 5.30961ZM126.45 5.32317L123.754 1.25725L122.749 1.92346L125.445 5.98938L126.45 5.32317ZM121.763 22.2759L126.527 5.82393L125.369 5.48863L120.605 21.9406L121.763 22.2759ZM115.942 28.0337L121.604 22.5409L120.764 21.6756L115.103 27.1684L115.942 28.0337ZM112.262 23.7866L115.02 27.9348L116.024 27.2673L113.266 23.1191L112.262 23.7866ZM122.708 1.32964L112.221 23.1922L113.308 23.7136L123.795 1.85107L122.708 1.32964ZM20.9047 2.23686L23.6004 6.30278L24.6052 5.63658L21.9095 1.57065L20.9047 2.23686ZM1.70986 24.0615L21.8493 2.31332L20.9648 1.49418L0.825293 23.2423L1.70986 24.0615ZM4.52752 27.4664L1.76955 23.3182L0.765603 23.9856L3.52357 28.1338L4.52752 27.4664ZM19.3723 22.1637L3.83873 27.227L4.21236 28.3732L19.7459 23.3099L19.3723 22.1637ZM23.521 5.81201L18.9773 22.5791L20.1409 22.8944L24.6847 6.12734L23.521 5.81201ZM94.5671 4.14383L97.2629 8.20976L98.2677 7.54356L95.572 3.47763L94.5671 4.14383ZM66.7759 27.6588L95.4505 4.27791L94.6886 3.34355L66.014 26.7244L66.7759 27.6588ZM69.6549 31.0061L66.8969 26.8579L65.893 27.5253L68.6509 31.6735L69.6549 31.0061ZM93.06 24.063L68.9913 30.7591L69.3145 31.9205L93.3832 25.2245L93.06 24.063ZM97.1835 7.71899L92.6398 24.4861L93.8034 24.8014L98.3471 8.03432L97.1835 7.71899ZM39.4472 11.9536L36.7514 7.88772L35.7466 8.55393L38.4424 12.6199L39.4472 11.9536ZM34.2865 25.1121L39.5017 12.5174L38.3878 12.0561L33.1727 24.6509L34.2865 25.1121ZM25.2997 24.2266L33.6402 25.4776L33.819 24.2854L25.4785 23.0343L25.2997 24.2266ZM21.3013 21.6298L25.0547 24.132L25.7234 23.1289L21.9701 20.6267L21.3013 21.6298ZM35.8499 7.76903L21.2367 20.6765L22.0348 21.5801L36.648 8.67262L35.8499 7.76903ZM52.5793 8.54061L56.5519 14.8883L57.5739 14.2487L53.6013 7.90104L52.5793 8.54061ZM39.604 20.5536L53.4822 8.67884L52.6984 7.76281L38.8202 19.6376L39.604 20.5536ZM44.7324 28.7261L39.7382 19.8013L38.6861 20.39L43.6803 29.3149L44.7324 28.7261ZM47.9081 33.382L44.7045 28.681L43.7082 29.36L46.9119 34.0609L47.9081 33.382ZM63.5966 24.903L47.1391 33.183L47.6809 34.26L64.1385 25.98L63.5966 24.903ZM60.495 21.1888L63.3566 25.7613L64.3785 25.1217L61.5169 20.5492L60.495 21.1888ZM61.5016 21.212L67.4409 12.6298L66.4496 11.9437L60.5103 20.526L61.5016 21.212ZM67.4476 11.9536L64.7519 7.88772L63.7471 8.55393L66.4428 12.6199L67.4476 11.9536ZM63.8504 7.76903L56.6638 14.1167L57.4619 15.0203L64.6485 8.67262L63.8504 7.76903Z" fill="black"/>
<path d="M69.6958 31.4335L75.4806 8.34976H97.6734L91.8886 31.4335H69.6958Z" fill="black" stroke="black" stroke-width="1.20559"/>
<path d="M4.57554 27.3193L4.48289 27.915H5.08568H8.59155H9.19435H10.2649H10.8677H20.3051H20.9079L21.0006 27.3193L21.6721 23.0022L21.7648 22.4065H21.162H11.7246L12.1486 19.6809H20.5443H21.1471L21.2398 19.0853L21.8935 14.8825L21.9862 14.2869H21.3834H12.9876L13.3494 11.9615H22.6131H23.2159L23.3086 11.3659L23.9802 7.04872L24.0728 6.45309H23.47H14.2062H13.6034H12.5329H11.9301H8.4242H7.8214L7.72875 7.04872L4.57554 27.3193Z" fill="black" stroke="black" stroke-width="1.20559"/>
<path d="M92.4285 27.2877L92.4317 27.2896C93.636 27.9674 95.0414 28.301 96.6338 28.301C97.8575 28.301 99.0025 28.0995 100.06 27.6825C101.126 27.2696 102.143 26.6536 103.108 25.8445L103.613 25.4215L103.244 24.9951L100.521 21.8502L100.136 21.4059L99.6402 21.8792C99.3647 22.1419 99.0658 22.3378 98.7397 22.4734C98.43 22.6022 98.0439 22.6783 97.5664 22.6783C97.1259 22.6783 96.7543 22.5789 96.4377 22.3865C96.134 22.1904 95.9005 21.9289 95.7347 21.5951C95.5986 21.2604 95.5581 20.8631 95.6323 20.3863C95.7104 19.8838 95.8767 19.4908 96.1069 19.1823C96.3755 18.8486 96.6855 18.5988 97.0415 18.4218L97.0415 18.4219L97.0501 18.4174C97.428 18.2232 97.8324 18.1229 98.275 18.1229C98.7164 18.1229 99.0568 18.1901 99.3148 18.3049L99.3308 18.3121L99.3475 18.3181C99.6316 18.422 99.8664 18.5834 100.057 18.8061L100.418 19.2273L100.91 18.8061L104.582 15.6612L105.08 15.2345L104.708 14.8134C104.024 14.0392 103.221 13.4513 102.298 13.0581C101.372 12.664 100.321 12.4715 99.1541 12.4715C97.5414 12.4715 96.0189 12.8151 94.5984 13.5142C93.2084 14.1903 92.0301 15.1272 91.074 16.3206L91.0739 16.3206L91.069 16.3268C90.1225 17.5345 89.536 18.9031 89.3009 20.4149C89.0684 21.9092 89.2315 23.2679 89.8017 24.4743C90.3676 25.6718 91.2468 26.6109 92.4285 27.2877Z" fill="black" stroke="black" stroke-width="1.20559"/>
<path d="M84.1702 27.6939L84.2982 27.9906H84.6454H90.4323H91.5651L91.0767 27.0622L87.4562 20.1804L92.8579 13.7479L93.6382 12.8186H92.503H87.1213H86.778L86.5574 13.1104L84.6288 15.6618L83.5159 13.1134L83.3872 12.8186H83.0415H77.2257H76.0873L76.5824 13.7491L80.0549 20.2738L74.227 27.0549L73.4228 27.9906H74.5763H79.9581H80.2918L80.5124 27.7112L82.8823 24.7093L84.1702 27.6939Z" fill="black" stroke="black" stroke-width="1.20559"/>
<path d="M65.1581 27.3182L65.1581 27.3182L65.1643 27.3216C66.3743 27.9803 67.819 28.301 69.4804 28.301C70.7983 28.301 72.0292 28.0907 73.1646 27.6566C74.3192 27.2225 75.3461 26.5783 76.2366 25.7254L76.6746 25.3059L76.3365 24.9112L74.3289 22.5672L77.1188 22.5544L77.5875 22.5522L77.771 22.1032C77.9331 21.7064 78.0549 21.3423 78.1293 21.0152C78.2194 20.6934 78.2887 20.3788 78.3365 20.0718C78.5616 18.6247 78.4239 17.3176 77.9062 16.1684C77.4135 15.0061 76.6054 14.101 75.493 13.4596C74.3966 12.7954 73.0812 12.4715 71.5666 12.4715C70.0078 12.4715 68.5307 12.8169 67.1478 13.5181C65.7944 14.1966 64.6546 15.1364 63.7386 16.3312C62.8149 17.5207 62.2417 18.8787 62.0072 20.3863C61.7693 21.9155 61.9277 23.2939 62.4991 24.5029C63.0661 25.7027 63.9569 26.6419 65.1581 27.3182ZM68.7254 23.1868C68.4884 23.0386 68.2961 22.8438 68.1495 22.5955L72.9605 22.5734C72.6054 22.8683 72.2366 23.0886 71.8529 23.2411L71.8529 23.241L71.8451 23.2442C71.3869 23.4326 70.8497 23.536 70.2216 23.536C69.5667 23.536 69.0795 23.4084 68.7254 23.1868ZM72.0357 17.5368C72.2479 17.6925 72.4156 17.9132 72.5291 18.2182H68.7887C69.0039 17.9594 69.2454 17.7537 69.5128 17.594C69.8989 17.3633 70.3481 17.2366 70.8833 17.2366C71.4133 17.2366 71.7821 17.3507 72.0357 17.5368Z" fill="black" stroke="black" stroke-width="1.20559"/>
<path d="M104.812 27.2313L104.812 27.2314L104.819 27.2348C106.029 27.8935 107.473 28.2142 109.135 28.2142C110.453 28.2142 111.684 28.0039 112.819 27.5698C113.973 27.1357 115 26.4915 115.891 25.6386L116.329 25.2191L115.991 24.8244L113.983 22.4803L116.773 22.4675L117.242 22.4654L117.425 22.0164C117.587 21.6196 117.709 21.2554 117.784 20.9284C117.874 20.6066 117.943 20.292 117.991 19.985C118.216 18.5379 118.078 17.2308 117.561 16.0815C117.068 14.9193 116.26 14.0142 115.147 13.3728C114.051 12.7086 112.736 12.3847 111.221 12.3847C109.662 12.3847 108.185 12.7301 106.802 13.4313C105.449 14.1098 104.309 15.0495 103.393 16.2444C102.469 17.4339 101.896 18.7919 101.662 20.2994C101.424 21.8286 101.582 23.2071 102.153 24.4161C102.72 25.6159 103.611 26.5551 104.812 27.2313ZM108.38 23.1C108.143 22.9518 107.95 22.757 107.804 22.5086L112.615 22.4866C112.26 22.7815 111.891 23.0018 111.507 23.1542L111.507 23.1542L111.499 23.1574C111.041 23.3457 110.504 23.4492 109.876 23.4492C109.221 23.4492 108.734 23.3215 108.38 23.1ZM111.69 17.45C111.888 17.5955 112.048 17.7978 112.16 18.0725L108.467 18.1028C108.676 17.8573 108.91 17.661 109.167 17.5071C109.553 17.2765 110.002 17.1497 110.538 17.1497C111.068 17.1497 111.436 17.2638 111.69 17.45Z" fill="black" stroke="black" stroke-width="1.20559"/>
<path d="M58.1842 27.6496L58.1849 27.6485L66.1793 13.6403L66.6482 12.8186H65.7494H60.3676H59.9192L59.7243 13.243L56.9108 19.367L56.0182 13.2443L55.9561 12.8186H55.5067H50.1249H49.2345L49.4381 13.6355L52.6847 26.6604L48.7412 33.0667L48.2228 33.9088H49.1589H54.2224H54.6276L54.8383 33.5381L58.1842 27.6496Z" fill="black" stroke="black" stroke-width="1.20559"/>
<path d="M40.0262 28.0208L40.0295 28.0217C40.8915 28.2642 41.7843 28.3858 42.7066 28.3858C44.6059 28.3858 46.2585 27.9664 47.6137 27.0658L47.6138 27.0659L47.6198 27.0618C49.0001 26.125 49.8211 24.842 50.0652 23.2729C50.2117 22.3308 50.1653 21.5047 49.8739 20.8341C49.6186 20.2037 49.2185 19.6942 48.6743 19.3164C48.4625 19.155 48.2419 19.0088 48.0126 18.8781L48.2981 18.6313L51.5072 15.8581L51.9471 15.4779L51.6699 15.0631C51.0625 14.154 50.1876 13.4856 49.0661 13.052C47.9657 12.6065 46.7705 12.3847 45.485 12.3847C44.2239 12.3847 43.0624 12.5954 42.0133 13.0366C40.9772 13.4547 40.1008 14.0507 39.4073 14.833L39.4073 14.833L39.4051 14.8356C38.722 15.6131 38.3077 16.5183 38.1509 17.5262C38.0072 18.45 38.0464 19.2628 38.315 19.9296L38.3177 19.9364L38.3206 19.9431C38.5979 20.5765 39.0146 21.0808 39.5735 21.4409C39.634 21.4798 39.695 21.518 39.7564 21.5552L39.2811 21.9698L36.1009 24.7431L35.627 25.1563L35.9683 25.573C36.4277 26.134 37.0066 26.6254 37.698 27.0502L37.7056 27.0548L37.7134 27.0592C38.4232 27.4609 39.1945 27.7811 40.0262 28.0208ZM46.2818 17.7176C46.6927 17.8654 47.0666 18.1413 47.3964 18.573C47.294 18.5296 47.1901 18.4888 47.0847 18.4509C46.559 18.2547 46.0345 18.0965 45.5115 17.9769C45.0604 17.8512 44.7086 17.7213 44.447 17.5909C44.4045 17.5678 44.3766 17.5476 44.3587 17.5321L44.3651 17.5281C44.4042 17.5037 44.5752 17.4356 44.9886 17.4356C45.3607 17.4356 45.7851 17.5202 46.2655 17.7114L46.2736 17.7146L46.2818 17.7176ZM39.8495 21.6108C40.2724 21.8595 40.7163 22.0676 41.1811 22.2349L41.1895 22.2379L41.198 22.2407C41.7368 22.4142 42.2506 22.5688 42.7392 22.7044L42.7516 22.7078L42.7642 22.7107C43.2367 22.8181 43.5691 22.9449 43.7866 23.0772L43.804 23.0878L43.8224 23.097C43.9109 23.1414 43.9361 23.1779 43.9419 23.1883C43.9431 23.1905 43.9441 23.1926 43.9448 23.1946C43.9428 23.1956 43.9407 23.1965 43.9385 23.1975L43.9281 23.2023L43.9179 23.2074C43.8314 23.2504 43.6256 23.3062 43.2363 23.3062C42.5805 23.3062 41.9838 23.1874 41.4407 22.952C40.9146 22.7156 40.4851 22.3897 40.1459 21.9741L39.8495 21.6108Z" fill="black" stroke="black" stroke-width="1.20559"/>
<path d="M21.5309 24.4345L21.5309 24.4345L21.5323 24.4383C21.9761 25.6152 22.7035 26.5529 23.7129 27.2396C24.7315 27.9327 25.9579 28.2731 27.3718 28.2731C28.3349 28.2731 29.2576 28.0969 30.1321 27.7352C30.266 27.6798 30.3972 27.6212 30.5257 27.5593L30.4591 27.9872H31.0619H36.0097H36.6125L36.7052 27.3916L38.8799 13.4109L38.9726 12.8152H38.3698H33.422H32.8192L32.7538 13.2356C32.6425 13.1748 32.5273 13.1178 32.4081 13.0646C31.6475 12.7047 30.7816 12.5293 29.8208 12.5293C28.4084 12.5293 27.0774 12.8691 25.8442 13.5607C24.6188 14.2304 23.598 15.1716 22.7857 16.3679C21.9703 17.5687 21.4529 18.9226 21.2206 20.4155C20.9912 21.8908 21.0895 23.2349 21.5309 24.4345ZM30.9757 22.032L30.9756 22.0319L30.9666 22.0401C30.5324 22.4366 30.002 22.6503 29.317 22.6503C28.8977 22.6503 28.5473 22.5519 28.2508 22.3615C27.9498 22.1682 27.74 21.914 27.6117 21.5932C27.4852 21.2506 27.4506 20.853 27.5231 20.3869C27.5922 19.9428 27.7457 19.5676 27.972 19.2465C28.2299 18.8931 28.5275 18.6283 28.8665 18.4379C29.217 18.2514 29.6052 18.1521 30.0456 18.1521C30.489 18.1521 30.833 18.2526 31.1022 18.4346L31.1021 18.4347L31.1118 18.441C31.4143 18.6352 31.6247 18.8909 31.7528 19.214C31.8792 19.533 31.9169 19.9181 31.844 20.3869C31.7341 21.0933 31.4371 21.6242 30.9757 22.032Z" fill="black" stroke="black" stroke-width="1.20559"/>
<path d="M116.187 27.3125L116.094 27.9081H116.697H121.731H122.334L122.427 27.3125L125.669 6.47006L125.762 5.87443H125.159H120.124H119.521L119.429 6.47006L116.187 27.3125Z" fill="black" stroke="black" stroke-width="1.20559"/>
<path d="M124.471 14.3653L124.362 15.0607H125.066H128.555L127.972 18.8057L127.864 19.5012H128.568H132.183H132.699L132.779 18.991L133.39 15.0607H137.041H137.558L137.637 14.5506L138.181 11.0528L138.289 10.3573H137.586H134.122L134.712 6.56272L134.82 5.86727H134.116H130.501H129.985L129.906 6.37741L129.287 10.3573H125.61H125.094L125.015 10.8675L124.471 14.3653Z" fill="black" stroke="black" stroke-width="1.20559"/>
<path d="M66.4089 26.5294L72.1937 3.44568H94.3865L88.6017 26.5294H66.4089Z" fill="#79F427" stroke="black" stroke-width="1.20559"/>
<path d="M1.28892 22.4153L1.19627 23.0109H1.79906H5.30493H5.90773H6.97829H7.58109H17.0185H17.6213L17.7139 22.4153L18.3855 18.0981L18.4781 17.5025H17.8753H8.43796L8.86194 14.7768H17.2577H17.8605L17.9531 14.1812L18.6069 9.97843L18.6996 9.38279H18.0968H9.70102L10.0627 7.05744H19.3265H19.9293L20.022 6.46181L20.6935 2.14465L20.7862 1.54902H20.1834H10.9196H10.3168H9.24624H8.64344H5.13758H4.53478L4.44213 2.14465L1.28892 22.4153Z" fill="white" stroke="black" stroke-width="1.20559"/>
<path d="M89.1416 22.3837L89.1449 22.3855C90.3491 23.0633 91.7546 23.397 93.347 23.397C94.5706 23.397 95.7157 23.1955 96.7731 22.7785C97.8396 22.3655 98.856 21.7495 99.8211 20.9404L100.326 20.5174L99.9566 20.091L97.2342 16.9461L96.8496 16.5018L96.3533 16.9751C96.0779 17.2378 95.7789 17.4337 95.4528 17.5693C95.1431 17.6981 94.757 17.7742 94.2795 17.7742C93.839 17.7742 93.4674 17.6748 93.1509 17.4824C92.8472 17.2863 92.6137 17.0248 92.4479 16.691C92.3118 16.3563 92.2712 15.959 92.3454 15.4822C92.4236 14.9797 92.5898 14.5868 92.8201 14.2782C93.0887 13.9445 93.3987 13.6947 93.7546 13.5177L93.7546 13.5178L93.7632 13.5134C94.1412 13.3192 94.5455 13.2188 94.9881 13.2188C95.4295 13.2188 95.7699 13.2861 96.0279 13.4008L96.044 13.408L96.0606 13.4141C96.3447 13.5179 96.5796 13.6793 96.7703 13.902L97.131 14.3232L97.6228 13.902L101.295 10.7571L101.793 10.3304L101.421 9.9093C100.737 9.13509 99.9343 8.54726 99.011 8.15404C98.0856 7.75987 97.0345 7.56741 95.8672 7.56741C94.2546 7.56741 92.732 7.91101 91.3116 8.61013C89.9215 9.2862 88.7432 10.2231 87.7871 11.4165L87.7871 11.4165L87.7822 11.4227C86.8357 12.6304 86.2492 13.999 86.014 15.5108C85.7815 17.0052 85.9446 18.3638 86.5148 19.5702C87.0807 20.7677 87.9599 21.7068 89.1416 22.3837Z" fill="white" stroke="black" stroke-width="1.20559"/>
<path d="M80.8836 22.7898L81.0116 23.0866H81.3588H87.1457H88.2785L87.79 22.1582L84.1696 15.2763L89.5712 8.84382L90.3516 7.91459H89.2164H83.8346H83.4913L83.2708 8.20633L81.3422 10.7577L80.2293 8.20937L80.1006 7.91459H79.7549H73.9391H72.8007L73.2958 8.84501L76.7682 15.3697L70.9404 22.1508L70.1362 23.0866H71.2897H76.6715H77.0052L77.2258 22.8071L79.5956 19.8053L80.8836 22.7898Z" fill="white" stroke="black" stroke-width="1.20559"/>
<path d="M61.8715 22.4141L61.8715 22.4141L61.8777 22.4175C63.0877 23.0762 64.5324 23.397 66.1938 23.397C67.5117 23.397 68.7426 23.1866 69.878 22.7525C71.0325 22.3184 72.0594 21.6742 72.95 20.8213L73.388 20.4019L73.0499 20.0071L71.0423 17.6631L73.8322 17.6503L74.3009 17.6481L74.4844 17.1991C74.6465 16.8023 74.7683 16.4382 74.8427 16.1112C74.9328 15.7893 75.0021 15.4747 75.0498 15.1677C75.2749 13.7206 75.1373 12.4135 74.6196 11.2643C74.1269 10.102 73.3188 9.19696 72.2063 8.55554C71.11 7.89134 69.7946 7.56741 68.28 7.56741C66.7212 7.56741 65.2441 7.91281 63.8612 8.61402C62.5078 9.29253 61.368 10.2323 60.452 11.4271C59.5283 12.6166 58.9551 13.9746 58.7206 15.4822C58.4827 17.0114 58.6411 18.3898 59.2125 19.5988C59.7795 20.7986 60.6702 21.7379 61.8715 22.4141ZM65.4388 18.2827C65.2018 18.1345 65.0094 17.9397 64.8629 17.6914L69.6738 17.6693C69.3188 17.9642 68.95 18.1845 68.5663 18.337L68.5663 18.3369L68.5584 18.3401C68.1003 18.5285 67.5631 18.6319 66.935 18.6319C66.2801 18.6319 65.7929 18.5043 65.4388 18.2827ZM68.7491 12.6327C68.9612 12.7884 69.129 13.0091 69.2424 13.3141H65.5021C65.7173 13.0553 65.9588 12.8496 66.2262 12.6899C66.6122 12.4592 67.0614 12.3325 67.5966 12.3325C68.1267 12.3325 68.4955 12.4466 68.7491 12.6327Z" fill="white" stroke="black" stroke-width="1.20559"/>
<path d="M101.526 22.3273L101.526 22.3273L101.532 22.3307C102.742 22.9894 104.187 23.3102 105.848 23.3102C107.166 23.3102 108.397 23.0998 109.532 22.6657C110.687 22.2316 111.714 21.5874 112.604 20.7345L113.042 20.3151L112.704 19.9203L110.697 17.5763L113.486 17.5635L113.955 17.5613L114.139 17.1123C114.301 16.7155 114.423 16.3514 114.497 16.0243C114.587 15.7025 114.656 15.3879 114.704 15.0809C114.929 13.6338 114.792 12.3267 114.274 11.1775C113.781 10.0152 112.973 9.11015 111.861 8.46873C110.764 7.80453 109.449 7.4806 107.934 7.4806C106.376 7.4806 104.898 7.826 103.516 8.52721C102.162 9.20572 101.022 10.1455 100.106 11.3403C99.1826 12.5298 98.6094 13.8878 98.3749 15.3954C98.137 16.9246 98.2954 18.303 98.8668 19.512C99.4338 20.7118 100.325 21.6511 101.526 22.3273ZM105.093 18.1959C104.856 18.0477 104.664 17.8529 104.517 17.6046L109.328 17.5825C108.973 17.8774 108.604 18.0977 108.221 18.2502L108.221 18.2501L108.213 18.2533C107.755 18.4417 107.217 18.5451 106.589 18.5451C105.934 18.5451 105.447 18.4175 105.093 18.1959ZM108.403 12.5459C108.602 12.6914 108.761 12.8937 108.874 13.1685L105.18 13.1987C105.39 12.9533 105.623 12.7569 105.88 12.6031C106.267 12.3724 106.716 12.2457 107.251 12.2457C107.781 12.2457 108.15 12.3598 108.403 12.5459Z" fill="white" stroke="black" stroke-width="1.20559"/>
<path d="M54.8976 22.7456L54.8983 22.7444L62.8926 8.73628L63.3616 7.91459H62.4628H57.081H56.6326L56.4376 8.33894L53.6242 14.4629L52.7315 8.34024L52.6695 7.91459H52.22H46.8383H45.9479L46.1515 8.73144L49.398 21.7564L45.4545 28.1627L44.9362 29.0048H45.8723H50.9358H51.341L51.5516 28.634L54.8976 22.7456Z" fill="white" stroke="black" stroke-width="1.20559"/>
<path d="M36.7393 23.1167L36.7426 23.1176C37.6046 23.3601 38.4974 23.4817 39.4197 23.4817C41.3191 23.4817 42.9716 23.0623 44.3269 22.1618L44.3269 22.1618L44.3329 22.1577C45.7133 21.221 46.5342 19.9379 46.7783 18.3688C46.9249 17.4267 46.8784 16.6006 46.5871 15.9301C46.3318 15.2996 45.9316 14.7901 45.3874 14.4124C45.1757 14.2509 44.9551 14.1047 44.7257 13.974L45.0113 13.7273L48.2203 10.954L48.6603 10.5738L48.3831 10.159C47.7756 9.24991 46.9007 8.58149 45.7792 8.1479C44.6789 7.70244 43.4837 7.4806 42.1981 7.4806C40.937 7.4806 39.7755 7.69129 38.7265 8.13254C37.6904 8.55062 36.8139 9.14668 36.1204 9.92896L36.1204 9.92895L36.1182 9.93149C35.4352 10.709 35.0208 11.6142 34.864 12.6221C34.7203 13.5459 34.7595 14.3587 35.0281 15.0255L35.0309 15.0323L35.0338 15.039C35.311 15.6725 35.7277 16.1767 36.2866 16.5368C36.3472 16.5758 36.4081 16.6139 36.4696 16.6512L35.9942 17.0657L32.814 19.839L32.3402 20.2522L32.6814 20.6689C33.1409 21.2299 33.7198 21.7213 34.4111 22.1461L34.4187 22.1508L34.4265 22.1552C35.1363 22.5568 35.9077 22.8771 36.7393 23.1167ZM42.9949 12.8135C43.4058 12.9614 43.7797 13.2373 44.1095 13.669C44.0071 13.6255 43.9033 13.5848 43.7979 13.5468C43.2721 13.3506 42.7477 13.1924 42.2247 13.0729C41.7735 12.9471 41.4217 12.8172 41.1601 12.6868C41.1177 12.6637 41.0898 12.6435 41.0718 12.6281L41.0782 12.624C41.1174 12.5996 41.2883 12.5316 41.7018 12.5316C42.0738 12.5316 42.4983 12.6162 42.9786 12.8073L42.9867 12.8106L42.9949 12.8135ZM36.5627 16.7068C36.9855 16.9554 37.4294 17.1636 37.8942 17.3308L37.9026 17.3338L37.9112 17.3366C38.45 17.5101 38.9637 17.6647 39.4524 17.8003L39.4647 17.8038L39.4773 17.8066C39.9498 17.914 40.2822 18.0408 40.4997 18.1732L40.5171 18.1838L40.5355 18.193C40.6241 18.2373 40.6492 18.2739 40.655 18.2842C40.6563 18.2865 40.6572 18.2885 40.658 18.2905C40.6559 18.2915 40.6538 18.2925 40.6516 18.2935L40.6413 18.2982L40.631 18.3033C40.5445 18.3463 40.3388 18.4021 39.9495 18.4021C39.2937 18.4021 38.6969 18.2834 38.1538 18.0479C37.6277 17.8116 37.1982 17.4856 36.859 17.07L36.5627 16.7068Z" fill="white" stroke="black" stroke-width="1.20559"/>
<path d="M18.244 19.5304L18.244 19.5305L18.2454 19.5342C18.6892 20.7111 19.4167 21.6489 20.426 22.3356C21.4446 23.0286 22.671 23.3691 24.0849 23.3691C25.0481 23.3691 25.9707 23.1928 26.8452 22.8311C26.9791 22.7757 27.1104 22.7171 27.2388 22.6552L27.1723 23.0831H27.7751H32.7228H33.3256L33.4183 22.4875L35.5931 8.50681L35.6857 7.91117H35.0829H30.1352H29.5324L29.467 8.3315C29.3557 8.27073 29.2404 8.21374 29.1212 8.16054C28.3606 7.80066 27.4947 7.62527 26.5339 7.62527C25.1215 7.62527 23.7905 7.96502 22.5573 8.65659C21.332 9.32638 20.3111 10.2676 19.4988 11.4639C18.6835 12.6646 18.166 14.0186 17.9338 15.5115C17.7043 16.9867 17.8026 18.3308 18.244 19.5304ZM27.6888 17.1279L27.6888 17.1278L27.6798 17.1361C27.2455 17.5325 26.7152 17.7463 26.0301 17.7463C25.6108 17.7463 25.2605 17.6479 24.9639 17.4574C24.6629 17.2641 24.4531 17.01 24.3249 16.6891C24.1983 16.3465 24.1637 15.9489 24.2362 15.4829C24.3053 15.0387 24.4588 14.6635 24.6851 14.3425C24.943 13.989 25.2406 13.7242 25.5796 13.5338C25.9301 13.3473 26.3183 13.248 26.7588 13.248C27.2021 13.248 27.5461 13.3486 27.8153 13.5305L27.8152 13.5306L27.825 13.5369C28.1275 13.7312 28.3378 13.9869 28.4659 14.31C28.5924 14.6289 28.63 15.014 28.5571 15.4829C28.4472 16.1892 28.1503 16.7201 27.6888 17.1279Z" fill="white" stroke="black" stroke-width="1.20559"/>
<path d="M112.9 22.4084L112.807 23.004H113.41H118.444H119.047L119.14 22.4084L122.382 1.56599L122.475 0.970361H121.872H116.837H116.234L116.142 1.56599L112.9 22.4084Z" fill="white" stroke="black" stroke-width="1.20559"/>
<path d="M121.184 9.4612L121.075 10.1567H121.779H125.268L124.686 13.9017L124.577 14.5971H125.281H128.896H129.413L129.492 14.087L130.103 10.1567H133.755H134.271L134.35 9.64651L134.894 6.14872L135.002 5.45327H134.299H130.835L131.425 1.65865L131.533 0.963197H130.83H127.214H126.698L126.619 1.47334L126 5.45327H122.323H121.807L121.728 5.96341L121.184 9.4612Z" fill="white" stroke="black" stroke-width="1.20559"/>
<path d="M75.5365 30.9474H84.645L75.5365 35.6792V30.9474Z" fill="black"/>
</svg>
